<svg width="27" height="24" viewBox="0 0 27 24" fill="none" xmlns="http://www.w3.org/2000/svg">
<path d="M25.29 18.1396L25.2896 18.14C25.2989 18.1553 25.3001 18.1659 25.3 18.1716L25.3 18.1719C25.2999 18.1777 25.2983 18.1889 25.2878 18.205L25.2877 18.2052C25.2767 18.2221 25.2548 18.2454 25.217 18.2653L25.2168 18.2654C25.1801 18.2848 25.1335 18.2981 25.0819 18.3H6.91754C6.85107 18.2987 6.79433 18.2781 6.75562 18.2513L6.75552 18.2512C6.71731 18.2248 6.70513 18.1991 6.70185 18.1883L25.29 18.1396ZM25.29 18.1396C25.2803 18.1259 25.2617 18.1068 25.2295 18.0898L25.2261 18.088L24.2252 17.5529L24.2247 17.5526C23.7343 17.29 23.3186 16.9135 23.0258 16.4523C22.7325 15.9903 22.5745 15.4616 22.5745 14.9185C22.5745 14.9184 22.5745 14.9184 22.5745 14.9184V10.096C22.5737 8.86973 22.1276 7.66628 21.2864 6.66659L21.8055 6.22978L21.2864 6.66659C20.4438 5.66529 19.2488 4.92198 17.8721 4.56268C17.6779 4.51248 17.4934 4.40476 17.3533 4.24108L17.3531 4.24081C17.2107 4.07417 17.1234 3.85886 17.1211 3.626L17.121 3.61903H17.121C17.121 3.40317 17.0255 3.17721 16.823 2.99692L17.2881 2.47477L16.823 2.99692C16.618 2.81428 16.3242 2.7 16.0033 2.7C15.6824 2.7 15.3887 2.81428 15.1836 2.99692C14.9812 3.17721 14.8856 3.40317 14.8856 3.61903V3.62653L14.8856 3.62653C14.8831 3.85943 14.7956 4.07449 14.6534 4.24082L14.6531 4.24111C14.5128 4.40504 14.3278 4.51294 14.1331 4.56306C12.757 4.9225 11.5626 5.66564 10.7203 6.66659L10.7203 6.66659C9.87918 7.66616 9.43307 8.86942 9.43213 10.0956C9.43213 10.0956 9.43213 10.0956 9.43213 10.0957C9.43213 10.0958 9.43213 10.0959 9.43213 10.096L9.43213 14.9176C9.43213 14.9176 9.43213 14.9176 9.43213 14.9176C9.43218 15.4609 9.27411 15.9896 8.98081 16.4515C8.68803 16.9127 8.27241 17.2891 7.78197 17.5518L7.7815 17.5521L6.78046 18.0872L6.77914 18.0879C6.73205 18.113 6.71182 18.1421 6.70484 18.1574L25.29 18.1396ZM6.70008 18.1745C6.69983 18.1782 6.70012 18.1826 6.70183 18.1882L6.70008 18.1745ZM6.70008 18.1745C6.70034 18.1707 6.70133 18.1651 6.70482 18.1574L6.70008 18.1745Z" stroke="black" stroke-width="1.4"/>
<path d="M14.9676 21.4498C15.3024 21.7174 15.6876 21.8937 16.0929 21.9646C16.4981 22.0356 16.9125 21.9994 17.3033 21.8589C17.6941 21.7184 18.0507 21.4774 18.3451 21.1548C18.6395 20.8323 18.8637 20.437 19 20H14C14.1825 20.5844 14.5205 21.0908 14.9676 21.4498Z" fill="black"/>
</svg>
