<svg width="27" height="24" viewBox="0 0 27 24" fill="none" xmlns="http://www.w3.org/2000/svg">
<path d="M23.0154 20.2518C23.1881 20.248 23.3567 20.203 23.5053 20.1211C23.6539 20.0392 23.7774 19.9231 23.864 19.784L21.0473 15.6297C21.0473 16.0895 21.175 16.5415 21.4181 16.9418L20.8198 17.3052C20.8198 17.3052 20.8198 17.3052 20.8199 17.3052C21.1279 17.8125 21.5681 18.231 22.0928 18.5247L22.0932 18.525L23.1776 19.131L23.181 19.1329C23.2245 19.1569 23.2548 19.1875 23.2737 19.2175L23.2731 19.218C23.2925 19.2512 23.3004 19.2847 23.2999 19.3158L23.2999 19.316C23.2994 19.347 23.2905 19.3806 23.2698 19.414L23.2697 19.4141C23.2486 19.4479 23.215 19.4818 23.1674 19.508L23.1673 19.5081C23.121 19.5336 23.0654 19.5496 23.0057 19.5518M23.0154 20.2518V19.5518H23.0057M23.0154 20.2518H3.32191H23.0154ZM23.0057 19.5518H3.32702M23.0057 19.5518H3.32702M20.3473 15.6296V10.1684C20.3464 8.74814 19.8519 7.36044 18.9284 6.21327L19.4737 5.77433L18.9284 6.21327C18.0042 5.06513 16.6987 4.21876 15.202 3.81042C14.9969 3.75501 14.8077 3.6375 14.6672 3.46593L14.667 3.46566C14.5247 3.29172 14.4416 3.07246 14.4394 2.84016L14.4393 2.83349H14.4394C14.4394 2.54966 14.3187 2.2664 14.0856 2.04933C13.8508 1.83069 13.5222 1.7 13.1702 1.7C12.8181 1.7 12.4896 1.8307 12.2548 2.04933C12.0217 2.2664 11.901 2.54966 11.901 2.83349V2.84067L11.901 2.84067C11.8986 3.07301 11.8153 3.29202 11.6732 3.46565L11.673 3.46596C11.5323 3.63779 11.3426 3.75551 11.1369 3.81084C9.64079 4.21934 8.33584 5.06552 7.41195 6.21327L7.41195 6.21327C6.4886 7.36033 5.99408 8.74785 5.99306 10.1679C5.99306 10.1679 5.99306 10.168 5.99306 10.168C5.99306 10.1681 5.99306 10.1682 5.99306 10.1683L5.99306 15.6287C5.99306 15.6287 5.99306 15.6287 5.99306 15.6287C5.99311 16.2192 5.82891 16.7966 5.52055 17.3043C5.21247 17.8115 4.77233 18.23 4.24765 18.5238L4.24718 18.5241L3.16271 19.1301L3.16137 19.1308C3.10221 19.1637 3.06613 19.208 3.04841 19.2487C3.03114 19.2884 3.02899 19.3289 3.04012 19.3675L20.3473 15.6296ZM20.3473 15.6296C20.3473 15.6296 20.3473 15.6296 20.3473 15.6297V15.6296ZM3.32702 19.5518C3.25071 19.5503 3.18188 19.5258 3.1306 19.4887L3.1305 19.4886C3.07933 19.4516 3.05155 19.407 3.04013 19.3675L3.32702 19.5518Z" fill="#1A5EC0" stroke="#1A5EC0" stroke-width="1.4"/>
<path d="M11.7918 21.8699H14.5458C14.3426 22.0138 14.1118 22.126 13.8627 22.1999C13.5261 22.2996 13.168 22.3255 12.8176 22.2749L12.8175 22.2749C12.4674 22.2244 12.1376 22.0993 11.8538 21.9125C11.8328 21.8986 11.8121 21.8844 11.7918 21.8699Z" stroke="#1A5EC0" stroke-width="1.4"/>
</svg>
