<svg width="21" height="20" viewBox="0 0 21 20" fill="none" xmlns="http://www.w3.org/2000/svg">
<path d="M7.19738 18.7821V15.7152C7.19736 14.9381 7.88198 14.3067 8.72997 14.3018H11.8437C12.6954 14.3018 13.386 14.9346 13.386 15.7152V18.7732C13.3859 19.4473 13.9794 19.9951 14.7149 20H16.8391C17.8313 20.0023 18.7836 19.6428 19.4861 19.0007C20.1886 18.3586 20.5833 17.4868 20.5833 16.5775V7.86585C20.5833 7.13139 20.2281 6.43471 19.6133 5.9635L12.3966 0.674268C11.1351 -0.250877 9.33332 -0.220992 8.10917 0.745384L1.0476 5.9635C0.403802 6.42082 0.019015 7.11956 0 7.86585V16.5686C0 18.4637 1.67633 20 3.74419 20H5.81998C6.1741 20.0023 6.51461 19.8751 6.76593 19.6464C7.01725 19.4178 7.15859 19.1067 7.15858 18.7821H7.19738Z" fill="#1A5EC0"/>
</svg>
